<svg id="icons" enable-background="new 0 0 64 64" height="512" viewBox="0 0 64 64" width="512" xmlns="http://www.w3.org/2000/svg"><path d="m41 57.502c10.478 0 19.001-8.523 19.001-19.001 0-.553-.447-1-1-1s-1 .447-1 1c0 9.374-7.627 17.001-17.001 17.001-.553 0-1 .447-1 1s.447 1 1 1z"/><path d="m63 29.499h-1.1c-.464-2.279-2.484-4-4.898-4h-5.109c-.464-2.279-2.484-4-4.898-4h-7.995v-3c0-.553-.447-1-1-1h-9.994c-2.414 0-4.435 1.721-4.898 4h-6.102c-2.414 0-4.435 1.721-4.898 4h-5.108c-2.414 0-4.435 1.721-4.898 4h-1.102c-.553 0-1 .447-1 1v8.002c0 12.683 10.317 23 23 23h18c12.683 0 23-10.317 23-23v-8.002c0-.553-.447-1-1-1zm-34.994-10h8.994v2h-11.81c.414-1.161 1.514-2 2.816-2zm-11 4h29.988c1.302 0 2.401.839 2.815 2h-35.619c.414-1.161 1.514-2 2.816-2zm-10.006 4h50.002c1.302 0 2.401.839 2.815 2h-55.632c.414-1.161 1.513-2 2.815-2zm55 11.002c0 11.579-9.421 21-21 21h-18c-11.579 0-21-9.421-21-21v-7.002h60z"/><path d="m12.611 4.289c.431-.334.515-.953.187-1.391-.33-.442-.957-.528-1.4-.199-.953.716-2.229 2.86-.231 5.855 1.368 2.053.42 2.99.232 3.146-.442.331-.532.958-.2 1.399.196.263.496.4.801.4.209 0 .419-.065.599-.2.954-.715 2.229-2.859.232-5.854-1.364-2.045-.429-2.984-.22-3.156z"/><path d="m22.612 4.289c.431-.334.515-.953.187-1.391-.331-.442-.956-.528-1.4-.199-.953.716-2.229 2.86-.231 5.855 1.368 2.053.42 2.99.232 3.146-.442.331-.532.958-.2 1.399.196.263.496.4.801.4.209 0 .419-.065.599-.2.954-.715 2.229-2.859.232-5.854-1.364-2.045-.429-2.984-.22-3.156z"/><path d="m32.613 4.289c.431-.334.515-.953.187-1.391-.331-.442-.956-.528-1.4-.199-.953.716-2.229 2.86-.231 5.855 1.368 2.053.42 2.99.232 3.146-.442.331-.532.958-.2 1.399.196.263.496.4.801.4.209 0 .419-.065.599-.2.954-.715 2.229-2.859.232-5.854-1.364-2.045-.429-2.984-.22-3.156z"/><path d="m42.614 4.289c.431-.334.515-.953.187-1.391-.331-.442-.956-.528-1.4-.199-.953.716-2.229 2.86-.231 5.855 1.368 2.053.42 2.99.232 3.146-.442.331-.532.958-.2 1.399.196.263.496.4.801.4.209 0 .419-.065.599-.2.954-.715 2.229-2.859.232-5.854-1.364-2.045-.429-2.984-.22-3.156z"/><path d="m52.615 4.289c.431-.334.515-.953.187-1.391-.331-.442-.956-.528-1.4-.199-.953.716-2.229 2.86-.231 5.855 1.368 2.053.42 2.99.232 3.146-.442.331-.532.958-.2 1.399.196.263.496.4.801.4.209 0 .419-.065.599-.2.954-.715 2.229-2.859.232-5.854-1.364-2.045-.429-2.984-.22-3.156z"/></svg>